<svg width="697" height="77" viewBox="0 0 697 77" fill="none" xmlns="http://www.w3.org/2000/svg">
<path d="M411.295 13.1914C411.295 17.4883 409.462 19.9375 405.795 20.5391L411.596 33H406.719L401.004 20.6895H391.357V33H386.953V2.19141H403.818C408.803 2.19141 411.295 4.69076 411.295 9.68945V13.1914ZM391.357 16.2852H403.582C404.757 16.2852 405.602 16.0273 406.117 15.5117C406.633 14.9961 406.891 14.151 406.891 12.9766V9.9043C406.891 8.72982 406.633 7.88477 406.117 7.36914C405.602 6.85352 404.757 6.5957 403.582 6.5957H391.357V16.2852ZM426.588 2.19141V33H422.184V2.19141H426.588ZM442.44 19.8086C441.839 19.8086 441.266 19.694 440.722 19.4648C440.192 19.2214 439.726 18.9062 439.325 18.5195C438.924 18.1185 438.609 17.653 438.38 17.123C438.151 16.5788 438.036 16.0059 438.036 15.4043V6.5957C438.036 5.99414 438.151 5.42839 438.38 4.89844C438.609 4.35417 438.924 3.88867 439.325 3.50195C439.726 3.10091 440.192 2.78581 440.722 2.55664C441.266 2.31315 441.839 2.19141 442.44 2.19141H457.394C457.995 2.19141 458.561 2.31315 459.091 2.55664C459.635 2.78581 460.108 3.10091 460.509 3.50195C460.91 3.88867 461.225 4.35417 461.454 4.89844C461.683 5.42839 461.798 5.99414 461.798 6.5957V10.5703H457.394V6.5957H442.44V15.4043H457.394C457.995 15.4043 458.561 15.5189 459.091 15.748C459.635 15.9772 460.108 16.2923 460.509 16.6934C460.91 17.0944 461.225 17.5671 461.454 18.1113C461.683 18.6413 461.798 19.207 461.798 19.8086V28.5957C461.798 29.1973 461.683 29.7702 461.454 30.3145C461.225 30.8444 460.91 31.3099 460.509 31.7109C460.108 32.112 459.635 32.4271 459.091 32.6562C458.561 32.8854 457.995 33 457.394 33H442.011C441.409 33 440.836 32.8854 440.292 32.6562C439.762 32.4271 439.297 32.112 438.895 31.7109C438.494 31.3099 438.179 30.8444 437.95 30.3145C437.721 29.7702 437.606 29.1973 437.606 28.5957V24.6426H442.011V28.5957H457.394V19.8086H442.44ZM499.714 2.19141V33H495.31V19.8086H477.671V33H473.267V2.19141H477.671V15.4043H495.31V2.19141H499.714ZM517.328 33L508.519 2.19141H512.924L519.756 26.7051L526.566 2.19141H530.971L537.781 26.7051L544.613 2.19141H549.018L540.209 33H535.375L528.779 9.9043L522.162 33H517.328ZM569.704 2.19141L581.584 33H577.18L574.452 25.9102H560.551L557.823 33H553.418L565.299 2.19141H569.704ZM562.227 21.5059H572.754L567.512 7.92773L562.227 21.5059ZM594.794 33H590.39V2.19141H594.794L613.313 26.082V2.19141H617.718V33H613.313L594.794 9.10938V33ZM626.501 2.19141H651.144V6.5957H641.025V33H636.62V6.5957H626.501V2.19141ZM686.396 2.19141V33H681.992V19.8086H664.353V33H659.949V2.19141H664.353V15.4043H681.992V2.19141H686.396Z" fill="white"/>
<path d="M387.594 68V39.9922H402.926C407.457 39.9922 409.723 42.2643 409.723 46.8086V50.793C409.723 55.3372 407.457 57.6094 402.926 57.6094H391.598V68H387.594ZM391.598 53.6055H402.711C403.779 53.6055 404.547 53.3711 405.016 52.9023C405.484 52.4336 405.719 51.6654 405.719 50.5977V47.0039C405.719 45.9362 405.484 45.168 405.016 44.6992C404.547 44.2305 403.779 43.9961 402.711 43.9961H391.598V53.6055ZM416.928 39.9922H437.338V43.9961H420.932V52.0039H434.936V56.0078H420.932V63.9961H437.338V68H416.928V39.9922ZM467.063 49.9922C467.063 53.8984 465.397 56.125 462.063 56.6719L467.337 68H462.903L457.708 56.8086H448.938V68H444.934V39.9922H460.266C464.798 39.9922 467.063 42.2643 467.063 46.8086V49.9922ZM448.938 52.8047H460.052C461.119 52.8047 461.888 52.5703 462.356 52.1016C462.825 51.6328 463.059 50.8646 463.059 49.7969V47.0039C463.059 45.9362 462.825 45.168 462.356 44.6992C461.888 44.2305 461.119 43.9961 460.052 43.9961H448.938V52.8047ZM475.363 39.9922H479.366V63.9961H495.363V39.9922H499.366V63.9961C499.366 64.543 499.262 65.0638 499.054 65.5586C498.846 66.0404 498.559 66.4635 498.195 66.8281C497.83 67.1927 497.4 67.4792 496.905 67.6875C496.424 67.8958 495.909 68 495.363 68H479.366C478.82 68 478.299 67.8958 477.804 67.6875C477.322 67.4792 476.899 67.1927 476.534 66.8281C476.17 66.4635 475.883 66.0404 475.675 65.5586C475.467 65.0638 475.363 64.543 475.363 63.9961V39.9922ZM522.627 68L512.177 47.4727V68H508.173V39.9922H512.548L523.213 61.0859L533.896 39.9922H538.252V68H534.267V47.4727L523.818 68H522.627ZM559.48 39.9922L570.281 68H566.277L563.797 61.5547H551.16L548.68 68H544.676L555.477 39.9922H559.48ZM552.684 57.5508H562.254L557.488 45.207L552.684 57.5508ZM580.69 68H576.686V39.9922H580.69L597.526 61.7109V39.9922H601.53V68H597.526L580.69 46.2812V68ZM624.555 63.9961C626.417 63.9961 627.85 63.4948 628.852 62.4922C629.855 61.4896 630.356 60.0573 630.356 58.1953V49.7969C630.356 48.8854 630.226 48.0716 629.966 47.3555C629.705 46.6393 629.321 46.0339 628.813 45.5391C628.318 45.0312 627.713 44.6471 626.997 44.3867C626.281 44.1263 625.467 43.9961 624.555 43.9961H614.321V63.9961H624.555ZM610.317 68V39.9922H624.555C626.053 39.9922 627.401 40.2266 628.598 40.6953C629.809 41.151 630.838 41.8086 631.684 42.668C632.544 43.5143 633.201 44.543 633.657 45.7539C634.126 46.9648 634.36 48.3125 634.36 49.7969V58.1953C634.36 59.6797 634.126 61.0273 633.657 62.2383C633.201 63.4492 632.544 64.4844 631.684 65.3438C630.838 66.1901 629.809 66.8477 628.598 67.3164C627.401 67.7721 626.053 68 624.555 68H610.317ZM646.39 39.9922V63.9961H660.784V68H642.386V39.9922H646.39ZM679.591 39.9922L690.392 68H686.388L683.908 61.5547H671.271L668.791 68H664.787L675.587 39.9922H679.591ZM672.795 57.5508H682.365L677.599 45.207L672.795 57.5508Z" fill="#727272"/>
<path d="M15.1572 29.5967C16.7399 29.5967 17.9574 29.1706 18.8096 28.3184C19.6618 27.4661 20.0879 26.2487 20.0879 24.666V17.5273C20.0879 16.7526 19.9772 16.0609 19.7559 15.4521C19.5345 14.8434 19.208 14.3288 18.7764 13.9082C18.3558 13.4766 17.8411 13.1501 17.2324 12.9287C16.6237 12.7074 15.932 12.5967 15.1572 12.5967H6.45801V29.5967H15.1572ZM3.05469 33V9.19336H15.1572C16.43 9.19336 17.5755 9.39258 18.5938 9.79102C19.623 10.1784 20.4974 10.7373 21.2168 11.4678C21.9473 12.1872 22.5062 13.0615 22.8936 14.0908C23.292 15.1201 23.4912 16.2656 23.4912 17.5273V24.666C23.4912 25.9277 23.292 27.0732 22.8936 28.1025C22.5062 29.1318 21.9473 30.0117 21.2168 30.7422C20.4974 31.4616 19.623 32.0205 18.5938 32.4189C17.5755 32.8063 16.43 33 15.1572 33H3.05469ZM31.6731 9.19336H49.0218V12.5967H35.0764V19.4033H46.9798V22.8066H35.0764V29.5967H49.0218V33H31.6731V9.19336ZM60.2418 22.8066C59.7769 22.8066 59.3342 22.7181 58.9136 22.541C58.5041 22.3529 58.1444 22.1094 57.8345 21.8105C57.5246 21.5007 57.2811 21.141 57.1041 20.7314C56.927 20.3109 56.8384 19.8682 56.8384 19.4033V12.5967C56.8384 12.1318 56.927 11.6947 57.1041 11.2852C57.2811 10.8646 57.5246 10.5049 57.8345 10.2061C58.1444 9.89616 58.5041 9.65267 58.9136 9.47559C59.3342 9.28743 59.7769 9.19336 60.2418 9.19336H71.7964C72.2613 9.19336 72.6985 9.28743 73.108 9.47559C73.5285 9.65267 73.8938 9.89616 74.2037 10.2061C74.5136 10.5049 74.7571 10.8646 74.9341 11.2852C75.1112 11.6947 75.1998 12.1318 75.1998 12.5967V15.668H71.7964V12.5967H60.2418V19.4033H71.7964C72.2613 19.4033 72.6985 19.4919 73.108 19.6689C73.5285 19.846 73.8938 20.0895 74.2037 20.3994C74.5136 20.7093 74.7571 21.0745 74.9341 21.4951C75.1112 21.9046 75.1998 22.3418 75.1998 22.8066V29.5967C75.1998 30.0615 75.1112 30.5042 74.9341 30.9248C74.7571 31.3343 74.5136 31.694 74.2037 32.0039C73.8938 32.3138 73.5285 32.5573 73.108 32.7344C72.6985 32.9115 72.2613 33 71.7964 33H59.9097C59.4449 33 59.0022 32.9115 58.5816 32.7344C58.1721 32.5573 57.8124 32.3138 57.5025 32.0039C57.1926 31.694 56.9491 31.3343 56.772 30.9248C56.5949 30.5042 56.5064 30.0615 56.5064 29.5967V26.542H59.9097V29.5967H71.7964V22.8066H60.2418ZM87.4657 9.19336V33H84.0623V9.19336H87.4657ZM96.3116 12.5967C96.3116 12.1318 96.4002 11.6947 96.5773 11.2852C96.7543 10.8646 96.9978 10.5049 97.3077 10.2061C97.6176 9.89616 97.9773 9.65267 98.3868 9.47559C98.8074 9.28743 99.2501 9.19336 99.715 9.19336H112.631C113.096 9.19336 113.533 9.28743 113.942 9.47559C114.363 9.65267 114.728 9.89616 115.038 10.2061C115.348 10.5049 115.592 10.8646 115.769 11.2852C115.946 11.6947 116.034 12.1318 116.034 12.5967V15.668H112.631V12.5967H99.715V29.5967H112.631V23.8193H106.173V20.416H116.034V29.5967C116.034 30.0615 115.946 30.5042 115.769 30.9248C115.592 31.3343 115.348 31.694 115.038 32.0039C114.728 32.3138 114.363 32.5573 113.942 32.7344C113.533 32.9115 113.096 33 112.631 33H99.715C99.2501 33 98.8074 32.9115 98.3868 32.7344C97.9773 32.5573 97.6176 32.3138 97.3077 32.0039C96.9978 31.694 96.7543 31.3343 96.5773 30.9248C96.4002 30.5042 96.3116 30.0615 96.3116 29.5967V12.5967ZM128.267 33H124.864V9.19336H128.267L142.578 27.6543V9.19336H145.981V33H142.578L128.267 14.5391V33ZM154.81 9.19336H172.159V12.5967H158.214V19.4033H170.117V22.8066H158.214V29.5967H172.159V33H154.81V9.19336ZM192.078 29.5967C193.661 29.5967 194.878 29.1706 195.73 28.3184C196.583 27.4661 197.009 26.2487 197.009 24.666V17.5273C197.009 16.7526 196.898 16.0609 196.677 15.4521C196.455 14.8434 196.129 14.3288 195.697 13.9082C195.277 13.4766 194.762 13.1501 194.153 12.9287C193.545 12.7074 192.853 12.5967 192.078 12.5967H183.379V29.5967H192.078ZM179.976 33V9.19336H192.078C193.351 9.19336 194.496 9.39258 195.515 9.79102C196.544 10.1784 197.418 10.7373 198.138 11.4678C198.868 12.1872 199.427 13.0615 199.814 14.0908C200.213 15.1201 200.412 16.2656 200.412 17.5273V24.666C200.412 25.9277 200.213 27.0732 199.814 28.1025C199.427 29.1318 198.868 30.0117 198.138 30.7422C197.418 31.4616 196.544 32.0205 195.515 32.4189C194.496 32.8063 193.351 33 192.078 33H179.976ZM242.292 33H241.23C238.95 33 237.351 32.3415 236.432 31.0244C235.491 32.3415 233.898 33 231.651 33H226.621C222.758 33 220.827 31.0742 220.827 27.2227V26.0273C220.827 24.5443 221.092 23.3545 221.624 22.458C222.155 21.5615 222.924 20.9639 223.931 20.665C223.035 20.2445 222.348 19.6025 221.873 18.7393C221.408 17.8649 221.175 16.7581 221.175 15.4189V14.9873C221.175 11.1247 223.101 9.19336 226.953 9.19336H231.983C233.942 9.19336 235.392 9.66927 236.333 10.6211C237.284 11.5729 237.76 13.0283 237.76 14.9873V16.415H234.44V15.1533C234.44 14.2458 234.241 13.5817 233.842 13.1611C233.444 12.7406 232.791 12.5303 231.883 12.5303H227.052C226.156 12.5303 225.508 12.7406 225.11 13.1611C224.711 13.5817 224.512 14.2458 224.512 15.1533V16.7139C224.512 17.5771 224.689 18.2191 225.043 18.6396C225.409 19.0492 226.001 19.2705 226.82 19.3037H242.292V22.624H238.109V27.0566C238.109 27.9531 238.308 28.6117 238.707 29.0322C239.105 29.4528 239.752 29.6631 240.649 29.6631H242.292V33ZM232.215 29.6631C233.123 29.6631 233.776 29.4528 234.174 29.0322C234.573 28.6117 234.772 27.9531 234.772 27.0566V22.624H226.72C225.813 22.624 225.16 22.8288 224.761 23.2383C224.363 23.6478 224.164 24.3063 224.164 25.2139V27.0566C224.164 27.9531 224.363 28.6117 224.761 29.0322C225.16 29.4528 225.813 29.6631 226.72 29.6631H232.215ZM15.1572 62.5967C16.7399 62.5967 17.9574 62.1706 18.8096 61.3184C19.6618 60.4661 20.0879 59.2487 20.0879 57.666V50.5273C20.0879 49.7526 19.9772 49.0609 19.7559 48.4521C19.5345 47.8434 19.208 47.3288 18.7764 46.9082C18.3558 46.4766 17.8411 46.1501 17.2324 45.9287C16.6237 45.7074 15.932 45.5967 15.1572 45.5967H6.45801V62.5967H15.1572ZM3.05469 66V42.1934H15.1572C16.43 42.1934 17.5755 42.3926 18.5938 42.791C19.623 43.1784 20.4974 43.7373 21.2168 44.4678C21.9473 45.1872 22.5062 46.0615 22.8936 47.0908C23.292 48.1201 23.4912 49.2656 23.4912 50.5273V57.666C23.4912 58.9277 23.292 60.0732 22.8936 61.1025C22.5062 62.1318 21.9473 63.0117 21.2168 63.7422C20.4974 64.4616 19.623 65.0205 18.5938 65.4189C17.5755 65.8063 16.43 66 15.1572 66H3.05469ZM31.6731 42.1934H49.0218V45.5967H35.0764V52.4033H46.9798V55.8066H35.0764V62.5967H49.0218V66H31.6731V42.1934ZM63.9771 66L54.7964 42.1934H58.4488L65.8531 61.7832L73.274 42.1934H76.9097L67.7291 66H63.9771ZM83.6971 42.1934H101.046V45.5967H87.1004V52.4033H99.0038V55.8066H87.1004V62.5967H101.046V66H83.6971V42.1934ZM112.266 42.1934V62.5967H124.501V66H108.862V42.1934H112.266ZM151.708 62.5967C151.708 63.0615 151.62 63.5042 151.443 63.9248C151.266 64.3343 151.022 64.694 150.712 65.0039C150.402 65.3138 150.037 65.5573 149.617 65.7344C149.207 65.9115 148.77 66 148.305 66H134.708C134.244 66 133.801 65.9115 133.38 65.7344C132.971 65.5573 132.611 65.3138 132.301 65.0039C131.991 64.694 131.748 64.3343 131.571 63.9248C131.394 63.5042 131.305 63.0615 131.305 62.5967V45.5967C131.305 45.1318 131.394 44.6947 131.571 44.2852C131.748 43.8646 131.991 43.5049 132.301 43.2061C132.611 42.8962 132.971 42.6527 133.38 42.4756C133.801 42.2874 134.244 42.1934 134.708 42.1934H148.305C148.77 42.1934 149.207 42.2874 149.617 42.4756C150.037 42.6527 150.402 42.8962 150.712 43.2061C151.022 43.5049 151.266 43.8646 151.443 44.2852C151.62 44.6947 151.708 45.1318 151.708 45.5967V62.5967ZM134.708 45.5967V62.5967H148.305V45.5967H134.708ZM160.554 66V42.1934H173.587C177.438 42.1934 179.364 44.1247 179.364 47.9873V51.374C179.364 55.2367 177.438 57.168 173.587 57.168H163.958V66H160.554ZM163.958 53.7646H173.404C174.312 53.7646 174.965 53.5654 175.363 53.167C175.761 52.7686 175.961 52.1156 175.961 51.208V48.1533C175.961 47.2458 175.761 46.5928 175.363 46.1943C174.965 45.7959 174.312 45.5967 173.404 45.5967H163.958V53.7646ZM186.849 42.1934H204.197V45.5967H190.252V52.4033H202.155V55.8066H190.252V62.5967H204.197V66H186.849V42.1934ZM224.116 62.5967C225.699 62.5967 226.917 62.1706 227.769 61.3184C228.621 60.4661 229.047 59.2487 229.047 57.666V50.5273C229.047 49.7526 228.936 49.0609 228.715 48.4521C228.494 47.8434 228.167 47.3288 227.736 46.9082C227.315 46.4766 226.8 46.1501 226.192 45.9287C225.583 45.7074 224.891 45.5967 224.116 45.5967H215.417V62.5967H224.116ZM212.014 66V42.1934H224.116C225.389 42.1934 226.535 42.3926 227.553 42.791C228.582 43.1784 229.457 43.7373 230.176 44.4678C230.906 45.1872 231.465 46.0615 231.853 47.0908C232.251 48.1201 232.45 49.2656 232.45 50.5273V57.666C232.45 58.9277 232.251 60.0732 231.853 61.1025C231.465 62.1318 230.906 63.0117 230.176 63.7422C229.457 64.4616 228.582 65.0205 227.553 65.4189C226.535 65.8063 225.389 66 224.116 66H212.014ZM269.052 53.582C269.55 53.737 270.003 53.9583 270.413 54.2461C270.822 54.5339 271.171 54.9046 271.459 55.3584C271.747 55.8011 271.968 56.3268 272.123 56.9355C272.278 57.5443 272.355 58.2415 272.355 59.0273V60.2227C272.355 64.0742 270.429 66 266.578 66H253.546V42.1934H265.897C269.749 42.1934 271.675 44.1247 271.675 47.9873V48.4189C271.675 49.7581 271.459 50.8538 271.027 51.7061C270.607 52.5472 269.948 53.1725 269.052 53.582ZM256.883 55.624V62.6631H266.478C267.375 62.6631 268.022 62.4528 268.421 62.0322C268.819 61.6117 269.018 60.9531 269.018 60.0566V58.2139C269.018 57.3063 268.819 56.6478 268.421 56.2383C268.022 55.8288 267.375 55.624 266.478 55.624H256.883ZM256.883 45.5303V52.3037H266.03C266.849 52.2705 267.436 52.0492 267.79 51.6396C268.155 51.2191 268.338 50.5771 268.338 49.7139V48.1533C268.338 47.2458 268.138 46.5817 267.74 46.1611C267.342 45.7406 266.694 45.5303 265.798 45.5303H256.883ZM281.749 42.1934L288.672 53.3164L295.611 42.1934H299.563L290.382 56.5537V66H286.979V56.5537L277.798 42.1934H281.749Z" fill="white"/>
</svg>
