<svg width="202" height="51" viewBox="0 0 202 51" fill="none" xmlns="http://www.w3.org/2000/svg">
<path d="M16.7197 7.29492C16.7197 9.83398 15.6364 11.2812 13.4697 11.6367L16.8975 19H14.0156L10.6387 11.7256H4.93848V19H2.33594V0.794922H12.3018C15.2471 0.794922 16.7197 2.27181 16.7197 5.22559V7.29492ZM4.93848 9.12305H12.1621C12.8561 9.12305 13.3555 8.9707 13.6602 8.66602C13.9648 8.36133 14.1172 7.86198 14.1172 7.16797V5.35254C14.1172 4.65853 13.9648 4.15918 13.6602 3.85449C13.3555 3.5498 12.8561 3.39746 12.1621 3.39746H4.93848V9.12305ZM25.7568 0.794922V19H23.1542V0.794922H25.7568ZM35.1239 11.2051C34.7684 11.2051 34.4299 11.1374 34.1082 11.002C33.7951 10.8581 33.52 10.6719 33.283 10.4434C33.0461 10.2064 32.8599 9.93132 32.7245 9.61816C32.589 9.29655 32.5213 8.95801 32.5213 8.60254V3.39746C32.5213 3.04199 32.589 2.70768 32.7245 2.39453C32.8599 2.07292 33.0461 1.79785 33.283 1.56934C33.52 1.33236 33.7951 1.14616 34.1082 1.01074C34.4299 0.866862 34.7684 0.794922 35.1239 0.794922H43.9598C44.3153 0.794922 44.6496 0.866862 44.9627 1.01074C45.2843 1.14616 45.5636 1.33236 45.8006 1.56934C46.0376 1.79785 46.2238 2.07292 46.3592 2.39453C46.4946 2.70768 46.5623 3.04199 46.5623 3.39746V5.74609H43.9598V3.39746H35.1239V8.60254H43.9598C44.3153 8.60254 44.6496 8.67025 44.9627 8.80566C45.2843 8.94108 45.5636 9.12728 45.8006 9.36426C46.0376 9.60124 46.2238 9.88053 46.3592 10.2021C46.4946 10.5153 46.5623 10.8496 46.5623 11.2051V16.3975C46.5623 16.7529 46.4946 17.0915 46.3592 17.4131C46.2238 17.7262 46.0376 18.0013 45.8006 18.2383C45.5636 18.4753 45.2843 18.6615 44.9627 18.7969C44.6496 18.9323 44.3153 19 43.9598 19H34.87C34.5145 19 34.176 18.9323 33.8543 18.7969C33.5412 18.6615 33.2661 18.4753 33.0291 18.2383C32.7922 18.0013 32.606 17.7262 32.4705 17.4131C32.3351 17.0915 32.2674 16.7529 32.2674 16.3975V14.0615H34.87V16.3975H43.9598V11.2051H35.1239ZM68.9675 0.794922V19H66.365V11.2051H55.9421V19H53.3396V0.794922H55.9421V8.60254H66.365V0.794922H68.9675ZM79.3757 19L74.1706 0.794922H76.7731L80.8102 15.2803L84.8346 0.794922H87.4372L91.4616 15.2803L95.4987 0.794922H98.1012L92.8962 19H90.0397L86.1423 5.35254L82.2321 19H79.3757ZM110.325 0.794922L117.345 19H114.743L113.13 14.8105H104.917L103.304 19H100.702L107.722 0.794922H110.325ZM105.907 12.208H112.128L109.03 4.18457L105.907 12.208ZM125.151 19H122.548V0.794922H125.151L136.094 14.9121V0.794922H138.697V19H136.094L125.151 4.88281V19ZM143.887 0.794922H158.449V3.39746H152.469V19H149.867V3.39746H143.887V0.794922ZM179.28 0.794922V19H176.677V11.2051H166.254V19H163.652V0.794922H166.254V8.60254H176.677V0.794922H179.28Z" fill="white"/>
<path d="M2.15625 42.4375V25.6328H11.3555C14.0742 25.6328 15.4336 26.9961 15.4336 29.7227V32.1133C15.4336 34.8398 14.0742 36.2031 11.3555 36.2031H4.55859V42.4375H2.15625ZM4.55859 33.8008H11.2266C11.8672 33.8008 12.3281 33.6602 12.6094 33.3789C12.8906 33.0977 13.0312 32.6367 13.0312 31.9961V29.8398C13.0312 29.1992 12.8906 28.7383 12.6094 28.457C12.3281 28.1758 11.8672 28.0352 11.2266 28.0352H4.55859V33.8008ZM19.7569 25.6328H32.003V28.0352H22.1592V32.8398H30.5616V35.2422H22.1592V40.0352H32.003V42.4375H19.7569V25.6328ZM49.838 31.6328C49.838 33.9766 48.838 35.3125 46.838 35.6406L50.002 42.4375H47.3419L44.2247 35.7227H38.963V42.4375H36.5606V25.6328H45.7598C48.4786 25.6328 49.838 26.9961 49.838 29.7227V31.6328ZM38.963 33.3203H45.6309C46.2716 33.3203 46.7325 33.1797 47.0137 32.8984C47.295 32.6172 47.4356 32.1562 47.4356 31.5156V29.8398C47.4356 29.1992 47.295 28.7383 47.0137 28.457C46.7325 28.1758 46.2716 28.0352 45.6309 28.0352H38.963V33.3203ZM54.8175 25.6328H57.2198V40.0352H66.8175V25.6328H69.2198V40.0352C69.2198 40.3633 69.1573 40.6758 69.0323 40.9727C68.9073 41.2617 68.7355 41.5156 68.5167 41.7344C68.298 41.9531 68.0402 42.125 67.7433 42.25C67.4542 42.375 67.1456 42.4375 66.8175 42.4375H57.2198C56.8917 42.4375 56.5792 42.375 56.2823 42.25C55.9933 42.125 55.7394 41.9531 55.5206 41.7344C55.3019 41.5156 55.13 41.2617 55.005 40.9727C54.88 40.6758 54.8175 40.3633 54.8175 40.0352V25.6328ZM83.1759 42.4375L76.9064 30.1211V42.4375H74.5041V25.6328H77.1291L83.5275 38.2891L89.9377 25.6328H92.5509V42.4375H90.1603V30.1211L83.8908 42.4375H83.1759ZM105.288 25.6328L111.769 42.4375H109.366L107.878 38.5703H100.296L98.8078 42.4375H96.4055L102.886 25.6328H105.288ZM101.21 36.168H106.952L104.093 28.7617L101.21 36.168ZM118.014 42.4375H115.612V25.6328H118.014L128.115 38.6641V25.6328H130.518V42.4375H128.115L118.014 29.4062V42.4375ZM144.333 40.0352C145.45 40.0352 146.31 39.7344 146.911 39.1328C147.513 38.5312 147.814 37.6719 147.814 36.5547V31.5156C147.814 30.9688 147.736 30.4805 147.579 30.0508C147.423 29.6211 147.193 29.2578 146.888 28.9609C146.591 28.6562 146.228 28.4258 145.798 28.2695C145.368 28.1133 144.88 28.0352 144.333 28.0352H138.193V40.0352H144.333ZM135.79 42.4375V25.6328H144.333C145.232 25.6328 146.04 25.7734 146.759 26.0547C147.486 26.3281 148.103 26.7227 148.611 27.2383C149.126 27.7461 149.521 28.3633 149.794 29.0898C150.075 29.8164 150.216 30.625 150.216 31.5156V36.5547C150.216 37.4453 150.075 38.2539 149.794 38.9805C149.521 39.707 149.126 40.3281 148.611 40.8438C148.103 41.3516 147.486 41.7461 146.759 42.0273C146.04 42.3008 145.232 42.4375 144.333 42.4375H135.79ZM157.434 25.6328V40.0352H166.071V42.4375H155.032V25.6328H157.434ZM177.355 25.6328L183.835 42.4375H181.433L179.945 38.5703H172.363L170.874 42.4375H168.472L174.952 25.6328H177.355ZM173.277 36.168H179.019L176.16 28.7617L173.277 36.168Z" fill="#727272"/>
</svg>
